<svg xmlns="http://www.w3.org/2000/svg" viewBox="0 0 64 64">
  <defs>
    <linearGradient id="g" x1="0%" y1="0%" x2="100%" y2="100%">
      <stop offset="0%" stop-color="#a855f7"/>
      <stop offset="100%" stop-color="#4f46e5"/>
    </linearGradient>
    <filter id="glow" x="-20%" y="-20%" width="140%" height="140%">
      <feGaussianBlur stdDeviation="2" result="blur"/>
      <feMerge><feMergeNode in="blur"/><feMergeNode in="SourceGraphic"/></feMerge>
    </filter>
  </defs>
  <rect width="64" height="64" rx="14" fill="#0c0c1e"/>
  <path d="M32 10 C36 6 45 6 49 12 C53 9 59 13 59 20 C61 27 57 33 52 35 C54 40 51 47 45 48 C42 52 37 51 34 48 L32 46 L30 48 C27 51 22 52 19 48 C13 47 10 40 12 35 C7 33 3 27 5 20 C5 13 11 9 15 12 C19 6 28 6 32 10 Z"
        fill="url(#g)" filter="url(#glow)"/>
  <g fill="none" stroke="#0c0c1e" stroke-linecap="round" stroke-width="1.5" opacity="0.55">
    <line x1="32" y1="11" x2="32" y2="45" stroke-dasharray="3 3"/>
    <path d="M15 22 C18 20 22 22 21 26"/>
    <path d="M49 22 C46 20 42 22 43 26"/>
    <path d="M14 34 C17 32 21 34 20 38"/>
    <path d="M50 34 C47 32 43 34 44 38"/>
  </g>
</svg>
